<svg width="83" height="46" viewBox="0 0 83 46" fill="none" xmlns="http://www.w3.org/2000/svg">
<path d="M12.386 6.36534C12.3182 6.08927 12.2115 5.84707 12.0656 5.63872C11.9198 5.42516 11.7375 5.24546 11.5187 5.09961C11.3051 4.94856 11.0551 4.83657 10.7686 4.76364C10.4874 4.68551 10.1774 4.64645 9.83888 4.64645C9.10965 4.64645 8.48721 4.82094 7.97154 5.16993C7.46108 5.51892 7.07043 6.02156 6.79957 6.67786C6.53392 7.33417 6.4011 8.1259 6.4011 9.05306C6.4011 9.99063 6.52871 10.7928 6.78394 11.4595C7.03917 12.1262 7.41941 12.6367 7.92466 12.9909C8.42991 13.3451 9.05757 13.5222 9.80763 13.5222C10.4691 13.5222 11.0187 13.4258 11.4562 13.2331C11.8989 13.0404 12.2297 12.7669 12.4485 12.4127C12.6672 12.0585 12.7766 11.6418 12.7766 11.1626L13.5267 11.2407H9.87013V8.14673H16.9645V10.3657C16.9645 11.8241 16.6545 13.0716 16.0347 14.1082C15.4201 15.1395 14.571 15.9312 13.4876 16.4833C12.4094 17.0303 11.1723 17.3037 9.77638 17.3037C8.21896 17.3037 6.85166 16.973 5.67448 16.3115C4.4973 15.6499 3.57795 14.7072 2.91644 13.4831C2.26014 12.259 1.93199 10.8032 1.93199 9.11556C1.93199 7.79254 2.13252 6.62057 2.5336 5.59965C2.93988 4.57873 3.50243 3.71669 4.22124 3.0135C4.94004 2.30511 5.77084 1.77121 6.71363 1.41181C7.65641 1.0472 8.66691 0.86489 9.74512 0.86489C10.6931 0.86489 11.5734 1.00032 12.386 1.27117C13.2037 1.53682 13.9252 1.91706 14.5502 2.41189C15.1805 2.90151 15.6883 3.48229 16.0738 4.15422C16.4592 4.82615 16.6936 5.56319 16.7769 6.36534H12.386ZM18.8325 17.085V5.08398H23.0203V7.36542H23.1454C23.3641 6.5216 23.7105 5.90436 24.1845 5.51371C24.6637 5.12305 25.2236 4.92772 25.8643 4.92772C26.0518 4.92772 26.2368 4.94335 26.4191 4.9746C26.6066 5.00064 26.7863 5.03971 26.9582 5.0918V8.77178C26.7446 8.69886 26.4816 8.64417 26.169 8.60771C25.8565 8.57125 25.5883 8.55302 25.3643 8.55302C24.9424 8.55302 24.5621 8.64938 24.2236 8.8421C23.8902 9.02962 23.6272 9.29526 23.4344 9.63904C23.2417 9.97761 23.1454 10.3761 23.1454 10.8345V17.085H18.8325ZM33.2152 17.3037C31.9339 17.3037 30.8296 17.0589 29.9025 16.5693C28.9805 16.0745 28.2695 15.3661 27.7695 14.4441C27.2746 13.517 27.0272 12.4075 27.0272 11.1157C27.0272 9.87604 27.2773 8.79262 27.7773 7.86546C28.2773 6.9383 28.9831 6.21689 29.8947 5.70122C30.8062 5.18555 31.8818 4.92772 33.1215 4.92772C34.0278 4.92772 34.8482 5.06836 35.5826 5.34963C36.3171 5.6309 36.9447 6.03979 37.4656 6.57629C37.9865 7.10759 38.3875 7.75347 38.6688 8.51395C38.9501 9.27443 39.0907 10.1313 39.0907 11.0845V12.0846H28.3711V9.70936H35.1216C35.1164 9.36558 35.0279 9.06347 34.856 8.80304C34.6893 8.53739 34.4627 8.33164 34.1763 8.1858C33.895 8.03474 33.5746 7.95922 33.2152 7.95922C32.8663 7.95922 32.5459 8.03474 32.2542 8.1858C31.9625 8.33164 31.7281 8.53479 31.551 8.79522C31.3791 9.05566 31.288 9.36037 31.2776 9.70936V12.2721C31.2776 12.6575 31.3583 13.0013 31.5198 13.3034C31.6813 13.6055 31.913 13.8425 32.2152 14.0144C32.5173 14.1863 32.8819 14.2722 33.309 14.2722C33.6059 14.2722 33.8767 14.2306 34.1216 14.1472C34.3716 14.0639 34.5851 13.9441 34.7622 13.7878C34.9393 13.6263 35.0696 13.4336 35.1529 13.2096H39.0907C38.9553 14.043 38.6349 14.7671 38.1297 15.3817C37.6245 15.9911 36.9551 16.4651 36.1217 16.8037C35.2935 17.137 34.3247 17.3037 33.2152 17.3037ZM46.3811 17.3037C45.0997 17.3037 43.9955 17.0589 43.0683 16.5693C42.1464 16.0745 41.4354 15.3661 40.9353 14.4441C40.4405 13.517 40.1931 12.4075 40.1931 11.1157C40.1931 9.87604 40.4431 8.79262 40.9431 7.86546C41.4432 6.9383 42.149 6.21689 43.0605 5.70122C43.972 5.18555 45.0476 4.92772 46.2873 4.92772C47.1936 4.92772 48.014 5.06836 48.7485 5.34963C49.4829 5.6309 50.1105 6.03979 50.6314 6.57629C51.1523 7.10759 51.5534 7.75347 51.8346 8.51395C52.1159 9.27443 52.2566 10.1313 52.2566 11.0845V12.0846H41.5369V9.70936H48.2875C48.2823 9.36558 48.1937 9.06347 48.0218 8.80304C47.8552 8.53739 47.6286 8.33164 47.3421 8.1858C47.0608 8.03474 46.7405 7.95922 46.3811 7.95922C46.0321 7.95922 45.7117 8.03474 45.4201 8.1858C45.1284 8.33164 44.894 8.53479 44.7169 8.79522C44.545 9.05566 44.4538 9.36037 44.4434 9.70936V12.2721C44.4434 12.6575 44.5242 13.0013 44.6856 13.3034C44.8471 13.6055 45.0789 13.8425 45.381 14.0144C45.6831 14.1863 46.0477 14.2722 46.4748 14.2722C46.7717 14.2722 47.0426 14.2306 47.2874 14.1472C47.5374 14.0639 47.751 13.9441 47.9281 13.7878C48.1052 13.6263 48.2354 13.4336 48.3187 13.2096H52.2566C52.1211 14.043 51.8008 14.7671 51.2955 15.3817C50.7903 15.9911 50.121 16.4651 49.2876 16.8037C48.4594 17.137 47.4905 17.3037 46.3811 17.3037ZM58.1093 10.3344V17.085H53.7964V5.08398H57.8905V7.36542H58.0155C58.276 6.60494 58.7343 6.00854 59.3907 5.57621C60.0522 5.14388 60.8231 4.92772 61.7033 4.92772C62.5524 4.92772 63.2894 5.12305 63.9145 5.51371C64.5447 5.89915 65.0317 6.43045 65.3755 7.10759C65.7245 7.78472 65.8964 8.55823 65.8912 9.42809V17.085H61.5783V10.3344C61.5835 9.74061 61.4325 9.27443 61.1252 8.93586C60.8231 8.59729 60.4011 8.42801 59.8594 8.42801C59.5052 8.42801 59.1953 8.50614 58.9297 8.6624C58.6692 8.81345 58.4687 9.03222 58.3281 9.3187C58.1874 9.59998 58.1145 9.93855 58.1093 10.3344Z" fill="url(#paint0_linear_95_15)"/>
<path d="M37.4364 40.9199V24.9186H44.3432C45.5308 24.9186 46.57 25.153 47.4607 25.6218C48.3514 26.0906 49.0441 26.7495 49.539 27.5985C50.0338 28.4476 50.2812 29.4398 50.2812 30.5753C50.2812 31.7213 50.026 32.7135 49.5155 33.5521C49.0103 34.3907 48.2993 35.0366 47.3826 35.4898C46.471 35.943 45.4058 36.1695 44.187 36.1695H40.0616V32.7943H43.3119C43.8224 32.7943 44.2573 32.7057 44.6167 32.5286C44.9813 32.3463 45.26 32.0885 45.4527 31.7551C45.6506 31.4218 45.7496 31.0285 45.7496 30.5753C45.7496 30.117 45.6506 29.7263 45.4527 29.4034C45.26 29.0752 44.9813 28.8252 44.6167 28.6533C44.2573 28.4762 43.8224 28.3877 43.3119 28.3877H41.7805V40.9199H37.4364ZM54.5245 41.1074C53.7588 41.1074 53.0816 40.9824 52.493 40.7324C51.9097 40.4772 51.4513 40.0917 51.1179 39.5761C50.7846 39.0604 50.6179 38.4041 50.6179 37.6072C50.6179 36.9508 50.7299 36.3909 50.9539 35.9273C51.1778 35.4585 51.4904 35.0757 51.8914 34.7788C52.2925 34.4819 52.7587 34.2553 53.29 34.0991C53.8265 33.9428 54.4047 33.8412 55.0245 33.7943C55.6964 33.7423 56.2355 33.6797 56.6418 33.6068C57.0533 33.5287 57.3502 33.4219 57.5325 33.2865C57.7148 33.1459 57.806 32.9609 57.806 32.7318V32.7005C57.806 32.388 57.6862 32.1484 57.4466 31.9817C57.207 31.815 56.8997 31.7317 56.5246 31.7317C56.1131 31.7317 55.7772 31.8228 55.5167 32.0051C55.2615 32.1822 55.1078 32.4557 55.0558 32.8255H51.0867C51.1388 32.0963 51.3706 31.4244 51.782 30.8097C52.1988 30.1899 52.8056 29.695 53.6025 29.3252C54.3995 28.9502 55.3943 28.7627 56.5871 28.7627C57.4466 28.7627 58.2175 28.8643 58.8998 29.0674C59.5822 29.2653 60.1629 29.544 60.6421 29.9034C61.1214 30.2576 61.486 30.6743 61.736 31.1535C61.9912 31.6275 62.1188 32.1432 62.1188 32.7005V40.9199H58.0873V39.2323H57.9935C57.7539 39.6802 57.4622 40.0422 57.1184 40.3183C56.7799 40.5944 56.3918 40.7949 55.9543 40.9199C55.5219 41.0449 55.0453 41.1074 54.5245 41.1074ZM55.9308 38.3885C56.259 38.3885 56.5663 38.3208 56.8528 38.1853C57.1445 38.0499 57.3815 37.8546 57.5638 37.5993C57.7461 37.3441 57.8372 37.0342 57.8372 36.6696V35.6695C57.7226 35.7164 57.6002 35.7606 57.47 35.8023C57.345 35.844 57.2096 35.8831 57.0637 35.9195C56.9231 35.956 56.772 35.9898 56.6106 36.0211C56.4543 36.0523 56.2902 36.081 56.1183 36.107C55.785 36.1591 55.5115 36.2451 55.298 36.3649C55.0896 36.4795 54.9333 36.6227 54.8292 36.7946C54.7302 36.9613 54.6807 37.1488 54.6807 37.3571C54.6807 37.6905 54.7979 37.9457 55.0323 38.1228C55.2667 38.2999 55.5662 38.3885 55.9308 38.3885ZM68.2724 24.9186V40.9199H63.9595V24.9186H68.2724ZM81.2194 32.8255H77.2504C77.2295 32.5807 77.1436 32.3697 76.9925 32.1926C76.8415 32.0156 76.6462 31.8801 76.4066 31.7864C76.1722 31.6874 75.9117 31.6379 75.6252 31.6379C75.2554 31.6379 74.9377 31.7056 74.672 31.8411C74.4064 31.9765 74.2762 32.1692 74.2814 32.4192C74.2762 32.5963 74.3517 32.7604 74.508 32.9115C74.6694 33.0625 74.9794 33.1797 75.4377 33.263L77.8754 33.7006C79.1047 33.9246 80.0188 34.3022 80.6178 34.8335C81.2221 35.3596 81.5268 36.0654 81.532 36.9508C81.5268 37.8051 81.2715 38.5473 80.7663 39.1776C80.2662 39.8026 79.5813 40.2871 78.7114 40.6308C77.8468 40.9694 76.8597 41.1387 75.7503 41.1387C73.9168 41.1387 72.4818 40.7637 71.4452 40.0136C70.4139 39.2635 69.8383 38.2739 69.7185 37.0446H74.0001C74.0574 37.4248 74.2449 37.7191 74.5627 37.9275C74.8856 38.1306 75.2919 38.2322 75.7815 38.2322C76.1774 38.2322 76.5029 38.1645 76.7581 38.0291C77.0186 37.8936 77.1514 37.7009 77.1566 37.4509C77.1514 37.2217 77.0368 37.0394 76.8128 36.904C76.5941 36.7685 76.2503 36.6592 75.7815 36.5758L73.6563 36.2008C72.4323 35.9872 71.5155 35.5809 70.9061 34.9819C70.2967 34.3829 69.9946 33.612 69.9998 32.6693C69.9946 31.8358 70.2133 31.1301 70.6561 30.5519C71.104 29.9685 71.7421 29.5258 72.5703 29.2237C73.4037 28.9163 74.3908 28.7627 75.5315 28.7627C77.266 28.7627 78.6333 29.1221 79.6334 29.8409C80.6387 30.5597 81.1674 31.5546 81.2194 32.8255Z" fill="url(#paint1_linear_95_15)"/>
<path d="M16.7096 36.3193L15.6824 35.284L14.3872 34.6136C14.0613 34.4458 13.781 34.2013 13.5705 33.9012C13.3599 33.6011 13.2254 33.2544 13.1784 32.8909C13.1315 32.5273 13.1735 32.1578 13.3009 31.8141C13.4283 31.4703 13.6372 31.1627 13.9097 30.9175L14.4567 30.451C15.8275 29.2105 18.5523 28.3517 19.9955 29.4117C21.4885 30.5082 21.4222 33.3453 20.6608 35.0078L20.3793 35.6692C20.2269 36.0026 19.9958 36.2941 19.7059 36.5184C19.416 36.7428 19.076 36.8935 18.715 36.9574C18.3541 37.0214 17.983 36.9967 17.6337 36.8856C17.2844 36.7744 16.9672 36.5801 16.7096 36.3193Z" stroke="url(#paint2_linear_95_15)" stroke-width="4.11643" stroke-linecap="round" stroke-linejoin="round"/>
<circle cx="26.7891" cy="32.8177" r="2.05822" transform="rotate(36.2966 26.7891 32.8177)" fill="url(#paint3_linear_95_15)"/>
<circle cx="25.5103" cy="26.7708" r="2.05822" transform="rotate(36.2966 25.5103 26.7708)" fill="url(#paint4_linear_95_15)"/>
<circle cx="14.7129" cy="23.9476" r="2.05822" transform="rotate(36.2966 14.7129 23.9476)" fill="url(#paint5_linear_95_15)"/>
<circle cx="20.8653" cy="23.3597" r="2.05822" transform="rotate(36.2966 20.8653 23.3597)" fill="url(#paint6_linear_95_15)"/>
<defs>
<linearGradient id="paint0_linear_95_15" x1="35.795" y1="3.08496" x2="35.795" y2="22.3365" gradientUnits="userSpaceOnUse">
<stop stop-color="#B9FF5E"/>
<stop offset="1" stop-color="#3DFF94"/>
</linearGradient>
<linearGradient id="paint1_linear_95_15" x1="51.3798" y1="26.9199" x2="51.3798" y2="45.2547" gradientUnits="userSpaceOnUse">
<stop stop-color="#B9FF5E"/>
<stop offset="1" stop-color="#3DFF94"/>
</linearGradient>
<linearGradient id="paint2_linear_95_15" x1="19.9955" y1="29.4117" x2="15.5317" y2="35.4892" gradientUnits="userSpaceOnUse">
<stop stop-color="#B9FF5E"/>
<stop offset="1" stop-color="#3DFF94"/>
</linearGradient>
<linearGradient id="paint3_linear_95_15" x1="26.7891" y1="30.7595" x2="26.7891" y2="34.8759" gradientUnits="userSpaceOnUse">
<stop stop-color="#B9FF5E"/>
<stop offset="1" stop-color="#3DFF94"/>
</linearGradient>
<linearGradient id="paint4_linear_95_15" x1="25.5103" y1="24.7126" x2="25.5103" y2="28.829" gradientUnits="userSpaceOnUse">
<stop stop-color="#B9FF5E"/>
<stop offset="1" stop-color="#3DFF94"/>
</linearGradient>
<linearGradient id="paint5_linear_95_15" x1="14.7129" y1="21.8893" x2="14.7129" y2="26.0058" gradientUnits="userSpaceOnUse">
<stop stop-color="#B9FF5E"/>
<stop offset="1" stop-color="#3DFF94"/>
</linearGradient>
<linearGradient id="paint6_linear_95_15" x1="20.8653" y1="21.3014" x2="20.8653" y2="25.4179" gradientUnits="userSpaceOnUse">
<stop stop-color="#B9FF5E"/>
<stop offset="1" stop-color="#3DFF94"/>
</linearGradient>
</defs>
</svg>
