<svg width="24" height="25" viewBox="0 0 24 25" fill="none" xmlns="http://www.w3.org/2000/svg">
<path fill-rule="evenodd" clip-rule="evenodd" d="M5 4.49341C4.44772 4.49341 4 4.94112 4 5.49341V15.4934C4 16.0457 4.44772 16.4934 5 16.4934H19C19.5523 16.4934 20 16.0457 20 15.4934V5.49341C20 4.94112 19.5523 4.49341 19 4.49341H5ZM2 5.49341C2 3.83655 3.34315 2.49341 5 2.49341H19C20.6569 2.49341 22 3.83655 22 5.49341V15.4934C22 17.1503 20.6569 18.4934 19 18.4934H13V20.4934H17C17.5523 20.4934 18 20.9411 18 21.4934C18 22.0457 17.5523 22.4934 17 22.4934H7C6.44772 22.4934 6 22.0457 6 21.4934C6 20.9411 6.44772 20.4934 7 20.4934H11V18.4934H5C3.34315 18.4934 2 17.1503 2 15.4934V5.49341ZM17.7071 6.7863C18.0976 7.17683 18.0976 7.80999 17.7071 8.20051L14.7071 11.2005C14.5196 11.3881 14.2652 11.4934 14 11.4934H10.4142L7.70711 14.2005C7.31658 14.591 6.68342 14.591 6.29289 14.2005C5.90237 13.81 5.90237 13.1768 6.29289 12.7863L9.29289 9.7863C9.48043 9.59876 9.73478 9.49341 10 9.49341H13.5858L16.2929 6.7863C16.6834 6.39578 17.3166 6.39578 17.7071 6.7863Z" fill="url(#paint0_linear_10_1374)"/>
<defs>
<linearGradient id="paint0_linear_10_1374" x1="12" y1="2.49341" x2="12" y2="22.4934" gradientUnits="userSpaceOnUse">
<stop stop-color="#B9FF5E"/>
<stop offset="1" stop-color="#3DFF94"/>
</linearGradient>
</defs>
</svg>
