<svg width="26" height="25" viewBox="0 0 26 25" fill="none" xmlns="http://www.w3.org/2000/svg">
<path d="M9.7096 19.3189L8.68243 18.2835L7.38721 17.6131C7.06132 17.4453 6.78105 17.2008 6.57049 16.9007C6.35994 16.6007 6.2254 16.2539 6.17843 15.8904C6.13147 15.5268 6.17349 15.1573 6.30087 14.8136C6.42826 14.4698 6.6372 14.1622 6.90975 13.917L7.45671 13.4505C8.82748 12.21 11.5523 11.3512 12.9955 12.4112C14.4885 13.5077 14.4222 16.3448 13.6608 18.0073L13.3793 18.6688C13.2269 19.0022 12.9958 19.2936 12.7059 19.518C12.416 19.7423 12.076 19.893 11.715 19.9569C11.3541 20.0209 10.983 19.9962 10.6337 19.8851C10.2844 19.7739 9.96725 19.5796 9.7096 19.3189Z" stroke="url(#paint0_linear_11_378)" stroke-width="4.11643" stroke-linecap="round" stroke-linejoin="round"/>
<circle cx="19.7891" cy="15.8177" r="2.05822" transform="rotate(36.2966 19.7891 15.8177)" fill="url(#paint1_linear_11_378)"/>
<circle cx="18.5102" cy="9.77079" r="2.05822" transform="rotate(36.2966 18.5102 9.77079)" fill="url(#paint2_linear_11_378)"/>
<circle cx="7.7128" cy="6.9478" r="2.05822" transform="rotate(36.2966 7.7128 6.9478)" fill="url(#paint3_linear_11_378)"/>
<circle cx="13.8651" cy="6.35917" r="2.05822" transform="rotate(36.2966 13.8651 6.35917)" fill="url(#paint4_linear_11_378)"/>
<defs>
<linearGradient id="paint0_linear_11_378" x1="12.9955" y1="12.4112" x2="8.53173" y2="18.4887" gradientUnits="userSpaceOnUse">
<stop stop-color="#B9FF5E"/>
<stop offset="1" stop-color="#3DFF94"/>
</linearGradient>
<linearGradient id="paint1_linear_11_378" x1="19.7891" y1="13.7595" x2="19.7891" y2="17.8759" gradientUnits="userSpaceOnUse">
<stop stop-color="#B9FF5E"/>
<stop offset="1" stop-color="#3DFF94"/>
</linearGradient>
<linearGradient id="paint2_linear_11_378" x1="18.5102" y1="7.71258" x2="18.5102" y2="11.829" gradientUnits="userSpaceOnUse">
<stop stop-color="#B9FF5E"/>
<stop offset="1" stop-color="#3DFF94"/>
</linearGradient>
<linearGradient id="paint3_linear_11_378" x1="7.7128" y1="4.88958" x2="7.7128" y2="9.00601" gradientUnits="userSpaceOnUse">
<stop stop-color="#B9FF5E"/>
<stop offset="1" stop-color="#3DFF94"/>
</linearGradient>
<linearGradient id="paint4_linear_11_378" x1="13.8651" y1="4.30096" x2="13.8651" y2="8.41739" gradientUnits="userSpaceOnUse">
<stop stop-color="#B9FF5E"/>
<stop offset="1" stop-color="#3DFF94"/>
</linearGradient>
</defs>
</svg>
