<svg width="26" height="25" viewBox="0 0 26 25" fill="none" xmlns="http://www.w3.org/2000/svg">
<path d="M9.70936 19.3174L8.68219 18.282L7.38697 17.6116C7.06107 17.4438 6.7808 17.1993 6.57025 16.8993C6.3597 16.5992 6.22515 16.2525 6.17819 15.8889C6.13123 15.5254 6.17324 15.1558 6.30063 14.8121C6.42801 14.4684 6.63696 14.1607 6.9095 13.9156L7.45646 13.449C8.82724 12.2086 11.5521 11.3497 12.9953 12.4097C14.4883 13.5063 14.422 16.3433 13.6606 18.0058L13.379 18.6673C13.2266 19.0007 12.9956 19.2921 12.7057 19.5165C12.4158 19.7409 12.0758 19.8915 11.7148 19.9555C11.3538 20.0194 10.9828 19.9947 10.6334 19.8836C10.2841 19.7725 9.967 19.5782 9.70936 19.3174Z" stroke="url(#paint0_linear_79_2545)" stroke-width="4.11643" stroke-linecap="round" stroke-linejoin="round"/>
<circle cx="19.7888" cy="15.8167" r="2.05822" transform="rotate(36.2966 19.7888 15.8167)" fill="url(#paint1_linear_79_2545)"/>
<circle cx="18.51" cy="9.76982" r="2.05822" transform="rotate(36.2966 18.51 9.76982)" fill="url(#paint2_linear_79_2545)"/>
<circle cx="7.71267" cy="6.94755" r="2.05822" transform="rotate(36.2966 7.71267 6.94755)" fill="url(#paint3_linear_79_2545)"/>
<circle cx="13.865" cy="6.35771" r="2.05822" transform="rotate(36.2966 13.865 6.35771)" fill="url(#paint4_linear_79_2545)"/>
<defs>
<linearGradient id="paint0_linear_79_2545" x1="12.9953" y1="12.4097" x2="8.53149" y2="18.4872" gradientUnits="userSpaceOnUse">
<stop stop-color="#B9FF5E"/>
<stop offset="1" stop-color="#3DFF94"/>
</linearGradient>
<linearGradient id="paint1_linear_79_2545" x1="19.7888" y1="13.7585" x2="19.7888" y2="17.8749" gradientUnits="userSpaceOnUse">
<stop stop-color="#B9FF5E"/>
<stop offset="1" stop-color="#3DFF94"/>
</linearGradient>
<linearGradient id="paint2_linear_79_2545" x1="18.51" y1="7.7116" x2="18.51" y2="11.828" gradientUnits="userSpaceOnUse">
<stop stop-color="#B9FF5E"/>
<stop offset="1" stop-color="#3DFF94"/>
</linearGradient>
<linearGradient id="paint3_linear_79_2545" x1="7.71267" y1="4.88934" x2="7.71267" y2="9.00577" gradientUnits="userSpaceOnUse">
<stop stop-color="#B9FF5E"/>
<stop offset="1" stop-color="#3DFF94"/>
</linearGradient>
<linearGradient id="paint4_linear_79_2545" x1="13.865" y1="4.29949" x2="13.865" y2="8.41593" gradientUnits="userSpaceOnUse">
<stop stop-color="#B9FF5E"/>
<stop offset="1" stop-color="#3DFF94"/>
</linearGradient>
</defs>
</svg>
