<svg width="23" height="23" viewBox="0 0 23 23" fill="none" xmlns="http://www.w3.org/2000/svg">
<path d="M20.8371 11.9874C20.8371 6.92434 16.7327 2.81995 11.6696 2.81995C6.60662 2.81995 2.50223 6.92434 2.50223 11.9874C2.50223 17.0504 6.60662 21.1548 11.6696 21.1548C16.7327 21.1548 20.8371 17.0504 20.8371 11.9874Z" stroke="url(#paint0_linear_6_1357)" stroke-width="1.37511"/>
<path d="M9.37787 8.9787C9.5015 8.65272 9.6883 8.36052 9.92234 8.11892C10.3509 7.67648 10.9379 7.40369 11.5854 7.40369C12.8977 7.40369 13.9616 8.52445 13.9616 9.90699C13.9616 11.1254 13.1352 12.1406 12.0408 12.3644C11.7927 12.4151 11.5854 12.6155 11.5854 12.8687V13.8209" stroke="url(#paint1_linear_6_1357)" stroke-width="1.37511" stroke-linecap="round"/>
<path d="M11.6696 17.717C12.1759 17.717 12.5864 17.3066 12.5864 16.8003C12.5864 16.294 12.1759 15.8835 11.6696 15.8835C11.1633 15.8835 10.7529 16.294 10.7529 16.8003C10.7529 17.3066 11.1633 17.717 11.6696 17.717Z" fill="url(#paint2_linear_6_1357)"/>
<defs>
<linearGradient id="paint0_linear_6_1357" x1="11.6696" y1="2.81995" x2="11.6696" y2="21.1548" gradientUnits="userSpaceOnUse">
<stop stop-color="#B9FF5E"/>
<stop offset="1" stop-color="#3DFF94"/>
</linearGradient>
<linearGradient id="paint1_linear_6_1357" x1="11.6697" y1="7.40369" x2="11.6697" y2="13.8209" gradientUnits="userSpaceOnUse">
<stop stop-color="#B9FF5E"/>
<stop offset="1" stop-color="#3DFF94"/>
</linearGradient>
<linearGradient id="paint2_linear_6_1357" x1="11.6696" y1="15.8835" x2="11.6696" y2="17.717" gradientUnits="userSpaceOnUse">
<stop stop-color="#B9FF5E"/>
<stop offset="1" stop-color="#3DFF94"/>
</linearGradient>
</defs>
</svg>
