<svg width="23" height="23" viewBox="0 0 23 23" fill="none" xmlns="http://www.w3.org/2000/svg">
<g clip-path="url(#clip0_6_676)">
<path d="M11.6696 14.2443C13.1885 14.2443 14.4198 13.013 14.4198 11.4941C14.4198 9.97521 13.1885 8.7439 11.6696 8.7439C10.1507 8.7439 8.91934 9.97521 8.91934 11.4941C8.91934 13.013 10.1507 14.2443 11.6696 14.2443Z" stroke="url(#paint0_linear_6_676)" stroke-width="1.83348" stroke-linecap="round" stroke-linejoin="round"/>
<path d="M18.3489 15.1249C18.295 14.8275 18.3314 14.5208 18.4535 14.2443C18.5697 13.9731 18.7626 13.7419 19.0086 13.579C19.2545 13.4161 19.5427 13.3287 19.8377 13.3275H19.9202C20.4065 13.3275 20.8729 13.1344 21.2167 12.7905C21.5606 12.4467 21.7537 11.9803 21.7537 11.4941C21.7537 11.0078 21.5606 10.5414 21.2167 10.1976C20.8729 9.85375 20.4065 9.66058 19.9202 9.66058H19.7644C19.4694 9.65941 19.1812 9.572 18.9352 9.40912C18.6893 9.24623 18.4963 9.01499 18.3801 8.74384V8.6705C18.2581 8.394 18.2217 8.08728 18.2756 7.78989C18.3295 7.49251 18.4713 7.21809 18.6826 7.00203L18.7376 6.94703C18.9081 6.77675 19.0434 6.57454 19.1356 6.35195C19.2279 6.12937 19.2754 5.89079 19.2754 5.64984C19.2754 5.40889 19.2279 5.17031 19.1356 4.94773C19.0434 4.72515 18.9081 4.52293 18.7376 4.35265C18.5674 4.18218 18.3652 4.04695 18.1426 3.95468C17.92 3.86241 17.6814 3.81492 17.4405 3.81492C17.1995 3.81492 16.9609 3.86241 16.7383 3.95468C16.5158 4.04695 16.3136 4.18218 16.1433 4.35265L16.0883 4.40766C15.8722 4.619 15.5978 4.76077 15.3004 4.81469C15.003 4.86862 14.6963 4.83221 14.4198 4.71018C14.1487 4.59397 13.9174 4.40102 13.7545 4.15506C13.5916 3.90911 13.5042 3.6209 13.5031 3.3259V3.24339C13.5031 2.75712 13.3099 2.29077 12.966 1.94693C12.6222 1.60308 12.1558 1.40991 11.6696 1.40991C11.1833 1.40991 10.717 1.60308 10.3731 1.94693C10.0293 2.29077 9.83609 2.75712 9.83609 3.24339V3.39924C9.83491 3.69424 9.7475 3.98245 9.58462 4.2284C9.42174 4.47435 9.19049 4.66731 8.91935 4.78352H8.84601C8.56951 4.90555 8.26278 4.94195 7.9654 4.88803C7.66801 4.83411 7.3936 4.69234 7.17754 4.481L7.12254 4.42599C6.95226 4.25552 6.75004 4.12028 6.52746 4.02802C6.30488 3.93575 6.0663 3.88825 5.82535 3.88825C5.5844 3.88825 5.34581 3.93575 5.12323 4.02802C4.90065 4.12028 4.69844 4.25552 4.52816 4.42599C4.35769 4.59627 4.22245 4.79848 4.13018 5.02107C4.03791 5.24365 3.99042 5.48223 3.99042 5.72318C3.99042 5.96413 4.03791 6.20271 4.13018 6.42529C4.22245 6.64788 4.35769 6.85009 4.52816 7.02037L4.58316 7.07537C4.79451 7.29143 4.93628 7.56585 4.9902 7.86323C5.04412 8.16062 5.00772 8.46734 4.88569 8.74384C4.78092 9.02871 4.59287 9.27546 4.346 9.45203C4.09913 9.62861 3.80484 9.72683 3.50141 9.73392H3.4189C2.93263 9.73392 2.46628 9.92709 2.12243 10.2709C1.77859 10.6148 1.58542 11.0811 1.58542 11.5674C1.58542 12.0537 1.77859 12.52 2.12243 12.8639C2.46628 13.2077 2.93263 13.4009 3.4189 13.4009H3.57475C3.86974 13.4021 4.15796 13.4895 4.40391 13.6524C4.64986 13.8152 4.84282 14.0465 4.95903 14.3176C5.08106 14.5941 5.11746 14.9009 5.06354 15.1982C5.00962 15.4956 4.86784 15.77 4.6565 15.9861L4.6015 16.0411C4.43103 16.2114 4.29579 16.4136 4.20352 16.6362C4.11125 16.8588 4.06376 17.0973 4.06376 17.3383C4.06376 17.5792 4.11125 17.8178 4.20352 18.0404C4.29579 18.263 4.43103 18.4652 4.6015 18.6355C4.77178 18.806 4.97399 18.9412 5.19657 19.0335C5.41915 19.1257 5.65774 19.1732 5.89869 19.1732C6.13963 19.1732 6.37822 19.1257 6.6008 19.0335C6.82338 18.9412 7.02559 18.806 7.19588 18.6355L7.25088 18.5805C7.46694 18.3691 7.74135 18.2274 8.03874 18.1734C8.33612 18.1195 8.64285 18.1559 8.91935 18.278C9.20421 18.3827 9.45097 18.5708 9.62754 18.8176C9.80411 19.0645 9.90233 19.3588 9.90943 19.6622V19.7447C9.90943 20.231 10.1026 20.6974 10.4464 21.0412C10.7903 21.385 11.2566 21.5782 11.7429 21.5782C12.2292 21.5782 12.6955 21.385 13.0394 21.0412C13.3832 20.6974 13.5764 20.231 13.5764 19.7447V19.5889C13.5776 19.2939 13.665 19.0057 13.8279 18.7597C13.9907 18.5138 14.222 18.3208 14.4931 18.2046C14.7696 18.0826 15.0764 18.0462 15.3737 18.1001C15.6711 18.154 15.9455 18.2958 16.1616 18.5071L16.2166 18.5621C16.3869 18.7326 16.5891 18.8678 16.8117 18.9601C17.0343 19.0524 17.2729 19.0999 17.5138 19.0999C17.7547 19.0999 17.9933 19.0524 18.2159 18.9601C18.4385 18.8678 18.6407 18.7326 18.811 18.5621C18.9815 18.3919 19.1167 18.1896 19.209 17.9671C19.3012 17.7445 19.3487 17.5059 19.3487 17.265C19.3487 17.024 19.3012 16.7854 19.209 16.5628C19.1167 16.3403 18.9815 16.138 18.811 15.9678L18.756 15.9128C18.5446 15.6967 18.4029 15.4223 18.3489 15.1249Z" stroke="url(#paint1_linear_6_676)" stroke-width="1.83348" stroke-linecap="round" stroke-linejoin="round"/>
</g>
<defs>
<linearGradient id="paint0_linear_6_676" x1="11.6696" y1="8.7439" x2="11.6696" y2="14.2443" gradientUnits="userSpaceOnUse">
<stop stop-color="#B9FF5E"/>
<stop offset="1" stop-color="#3DFF94"/>
</linearGradient>
<linearGradient id="paint1_linear_6_676" x1="11.6696" y1="1.40991" x2="11.6696" y2="21.5782" gradientUnits="userSpaceOnUse">
<stop stop-color="#B9FF5E"/>
<stop offset="1" stop-color="#3DFF94"/>
</linearGradient>
<clipPath id="clip0_6_676">
<rect width="22.0018" height="22.0018" fill="white" transform="translate(0.668671 0.493164)"/>
</clipPath>
</defs>
</svg>
