<svg width="21" height="22" viewBox="0 0 21 22" fill="none" xmlns="http://www.w3.org/2000/svg">
<path d="M16.4914 20.4493H3.82887C3.45658 20.4465 3.08886 20.3717 2.74853 20.2297C2.40819 20.0876 2.10251 19.8812 1.85044 19.6233C1.59836 19.3655 1.40528 19.0616 1.28316 18.7306C1.16104 18.3995 1.11249 18.0484 1.14053 17.699L1.4717 12.8036C1.4227 10.3423 1.65784 7.88324 2.17301 5.4697L2.41652 4.40628H17.9524L18.1959 5.5247C18.7111 7.93825 18.9462 10.3973 18.8972 12.8586L19.2284 17.754C19.2484 18.1029 19.1922 18.4518 19.0634 18.7794C18.9345 19.107 18.7358 19.4063 18.4793 19.6589C18.2229 19.9114 17.9142 20.1118 17.5723 20.2478C17.2304 20.3837 16.8625 20.4523 16.4914 20.4493Z" stroke="#333333" stroke-width="1.83348" stroke-linecap="round" stroke-linejoin="round"/>
<path d="M17.9037 1.19769H2.4165V4.36045H17.9037V1.19769Z" stroke="#333333" stroke-width="1.83348" stroke-linecap="round" stroke-linejoin="round"/>
<path d="M10.8419 15.2696L10.16 15.1688L9.47822 15.2696C9.30689 15.2953 9.13151 15.2814 8.96714 15.2292C8.80276 15.177 8.65432 15.088 8.53456 14.9699C8.41479 14.8518 8.3273 14.7081 8.27959 14.5511C8.23188 14.3941 8.22539 14.2286 8.26067 14.0687L8.33859 13.757C8.51392 12.9503 9.31263 11.9235 10.16 11.9235C11.0367 11.9235 11.8062 12.9594 11.9815 13.757L12.0594 14.0687C12.0947 14.2286 12.0882 14.3941 12.0405 14.5511C11.9928 14.7081 11.9053 14.8518 11.7855 14.9699C11.6658 15.088 11.5173 15.177 11.3529 15.2292C11.1886 15.2814 11.0132 15.2953 10.8419 15.2696Z" stroke="#333333" stroke-width="1.83348" stroke-linecap="round" stroke-linejoin="round"/>
<ellipse cx="13.7055" cy="11.3552" rx="0.974038" ry="0.916741" fill="#333333"/>
<ellipse cx="11.5238" cy="9.52166" rx="0.974038" ry="0.916741" fill="#333333"/>
<ellipse cx="6.61466" cy="11.3552" rx="0.974038" ry="0.916741" fill="#333333"/>
<ellipse cx="8.7963" cy="9.52166" rx="0.974038" ry="0.916741" fill="#333333"/>
</svg>
